<svg width="24" height="24" viewBox="0 0 24 24" fill="none" xmlns="http://www.w3.org/2000/svg">
<g clip-path="url(#clip0_1403_96)">
<path d="M14.2629 23.9958C7.44687 23.9958 7.39437 23.7131 6.54987 23.0778C6.10212 22.7411 5.25762 22.5078 2.17137 22.3068C1.94787 22.2918 1.73412 22.2063 1.59162 22.0331C1.52637 21.9528 -0.015625 19.7043 -0.015625 16.1028C-0.015625 12.5538 1.08837 10.9353 1.13488 10.8603C1.27138 10.6406 1.51212 10.5078 1.77012 10.5078C4.30363 10.5078 7.81662 7.27306 10.1776 1.62706C10.5856 0.650563 10.6704 0.0078125 12.1704 0.0078125C13.0231 0.0078125 13.9801 0.619063 14.4519 1.40281C15.4201 3.00406 14.9289 6.44356 14.4736 8.28106C16.0209 8.26831 18.8206 8.24731 20.1526 8.24731C22.0059 8.24731 23.2329 9.35206 23.2696 10.9676C23.2824 11.5008 23.2119 12.1818 23.0581 12.5343C23.4661 12.9416 23.9919 13.5543 24.0151 14.3448C24.0436 15.3648 23.3761 16.1411 22.9494 16.5866C23.0476 16.8828 23.2426 17.2766 23.2239 17.7468C23.1766 18.9033 22.2841 19.6481 21.7284 20.0373C21.7741 20.3538 21.8109 20.9508 21.7089 21.4128C21.3076 23.2556 18.6061 23.9951 14.2629 23.9951V23.9958ZM2.56962 20.7858C5.25763 21.0086 6.69462 21.3093 7.45212 21.8801C8.03862 22.3218 7.94863 22.4966 14.2629 22.4966C16.1889 22.4966 19.9554 22.4163 20.2449 21.0941C20.3596 20.5653 19.8024 20.0456 19.8001 20.0418C19.6479 19.6661 19.8174 19.2251 20.1886 19.0631C20.1946 19.0601 21.6924 18.5238 21.7261 17.6868C21.7486 17.1521 21.3811 16.8303 21.3729 16.8168C21.1546 16.4778 21.2341 16.0128 21.5656 15.7818C21.5694 15.7788 22.5399 15.1908 22.5159 14.3891C22.4979 13.7523 21.6586 13.3038 21.6331 13.2896C21.4456 13.1823 21.3091 12.9971 21.2664 12.7841C21.2244 12.5726 21.2716 12.3498 21.4036 12.1781C21.4036 12.1781 21.7854 11.5721 21.7711 11.0036C21.7434 9.78631 20.4346 9.74806 20.1541 9.74806C18.2619 9.74806 13.4034 9.76681 13.4034 9.76681C13.1416 9.76831 12.9144 9.64381 12.7734 9.43456C12.6324 9.22531 12.6226 8.96431 12.7044 8.72656C13.4371 6.61681 13.8466 3.30556 13.1664 2.17456C12.9661 1.84081 12.9204 1.50781 12.1704 1.50781C12.0661 1.50781 11.8194 1.59031 11.5614 2.20456C9.05562 8.20081 5.31238 11.6696 2.24563 11.9823C1.98087 12.5853 1.48363 13.8348 1.48363 16.1021C1.48363 18.4158 2.21637 20.2068 2.56887 20.7858H2.56962Z" fill="#245094"/>
</g>
<defs>
<clipPath id="clip0_1403_96">
<rect width="24" height="24" fill="white"/>
</clipPath>
</defs>
</svg>
