<svg width="24" height="24" viewBox="0 0 24 24" fill="none" xmlns="http://www.w3.org/2000/svg">
<path fill-rule="evenodd" clip-rule="evenodd" d="M4.80039 10.7984C4.80039 9.20714 5.43253 7.68102 6.55775 6.5558C7.68297 5.43058 9.20909 4.79844 10.8004 4.79844C12.3917 4.79844 13.9178 5.43058 15.043 6.5558C16.1683 7.68102 16.8004 9.20714 16.8004 10.7984C16.8004 12.3897 16.1683 13.9159 15.043 15.0411C13.9178 16.1663 12.3917 16.7984 10.8004 16.7984C9.20909 16.7984 7.68297 16.1663 6.55775 15.0411C5.43253 13.9159 4.80039 12.3897 4.80039 10.7984ZM10.8004 2.39844C9.4694 2.39844 8.15745 2.71472 6.97267 3.32123C5.7879 3.92774 4.7642 4.80711 3.98596 5.88687C3.20771 6.96663 2.69719 8.21587 2.49646 9.53165C2.29574 10.8474 2.41055 12.1921 2.83145 13.4548C3.25235 14.7174 3.96728 15.862 4.91732 16.7942C5.86737 17.7264 7.02533 18.4195 8.29578 18.8164C9.56624 19.2132 10.9128 19.3025 12.2245 19.0768C13.5363 18.8512 14.7756 18.317 15.8404 17.5184C15.8745 17.5638 15.9118 17.6067 15.952 17.6468L19.552 21.2468C19.7783 21.4654 20.0814 21.5864 20.3961 21.5836C20.7107 21.5809 21.0117 21.4547 21.2342 21.2322C21.4567 21.0097 21.5829 20.7088 21.5856 20.3941C21.5883 20.0795 21.4674 19.7764 21.2488 19.55L17.6488 15.95C17.6087 15.9098 17.5658 15.8726 17.5204 15.8384C18.4564 14.5905 19.0264 13.1065 19.1665 11.5528C19.3065 9.99913 19.0112 8.43713 18.3136 7.04184C17.6159 5.64655 16.5435 4.4731 15.2165 3.65297C13.8895 2.83284 12.3604 2.39844 10.8004 2.39844Z" fill="#245094"/>
</svg>
