<svg width="24" height="24" viewBox="0 0 24 24" fill="none" xmlns="http://www.w3.org/2000/svg">
<path fill-rule="evenodd" clip-rule="evenodd" d="M7.548 21.5982C16.6044 21.5982 21.558 14.2105 21.558 7.80464C21.558 7.59434 21.558 7.38562 21.5436 7.17768C22.5072 6.49244 23.3388 5.64163 24 4.66811C23.1024 5.06036 22.1484 5.31759 21.1728 5.431C22.2 4.82492 22.9692 3.87273 23.3376 2.74917C22.3704 3.3139 21.3132 3.71246 20.2104 3.92632C18.3456 1.97455 15.2268 1.87999 13.2432 3.71596C11.9652 4.89978 11.4216 6.66482 11.8188 8.34839C7.86 8.15227 4.1712 6.3116 1.6704 3.28354C0.3636 5.49875 1.032 8.33158 3.1956 9.75405C2.412 9.7316 1.6452 9.52389 0.96 9.14819V9.20972C0.9612 11.5171 2.6136 13.5039 4.9104 13.9611C4.1856 14.156 3.4248 14.1843 2.688 14.0437C3.3324 16.0191 5.1816 17.3721 7.2876 17.4111C5.544 18.7603 3.39 19.4929 1.1724 19.4906C0.7812 19.4894 0.39 19.4669 0 19.4208C2.2524 20.8433 4.872 21.5982 7.548 21.5947" fill="white"/>
</svg>
